<?xml version="1.0" encoding="UTF-8" standalone="no"?>
<svg
   xmlns:dc="http://purl.org/dc/elements/1.1/"
   xmlns:cc="http://creativecommons.org/ns#"
   xmlns:rdf="http://www.w3.org/1999/02/22-rdf-syntax-ns#"
   xmlns:svg="http://www.w3.org/2000/svg"
   xmlns="http://www.w3.org/2000/svg"
   xmlns:sodipodi="http://sodipodi.sourceforge.net/DTD/sodipodi-0.dtd"
   xmlns:inkscape="http://www.inkscape.org/namespaces/inkscape"
   version="1.1"
   id="svg10"
   width="549.33331"
   height="480"
   viewBox="0 0 549.33331 480"
   sodipodi:docname="Serenity_working.jpg.svg"
   inkscape:version="1.0.2 (e86c870879, 2021-01-15)">
  <metadata
     id="metadata16">
    <rdf:RDF>
      <cc:Work
         rdf:about="">
        <dc:format>image/svg+xml</dc:format>
        <dc:type
           rdf:resource="http://purl.org/dc/dcmitype/StillImage" />
        <dc:title></dc:title>
      </cc:Work>
    </rdf:RDF>
  </metadata>
  <defs
     id="defs14" />
  <sodipodi:namedview
     pagecolor="#505050"
     bordercolor="#ffffff"
     borderopacity="1"
     objecttolerance="10"
     gridtolerance="10"
     guidetolerance="10"
     inkscape:pageopacity="0"
     inkscape:pageshadow="2"
     inkscape:window-width="1460"
     inkscape:window-height="853"
     id="namedview12"
     showgrid="false"
     inkscape:zoom="1.3791667"
     inkscape:cx="274.66666"
     inkscape:cy="240"
     inkscape:window-x="26"
     inkscape:window-y="23"
     inkscape:window-maximized="0"
     inkscape:current-layer="g18" />
  <g
     inkscape:groupmode="layer"
     inkscape:label="Image"
     id="g18">
    <g
       id="g365">
      <path
         style="fill:#66b128;stroke-width:1.33333"
         d="m 224.74896,196.78015 c -0.95906,-5.13334 -2.90638,-14.52415 -4.32736,-20.86847 -1.421,-6.34432 -2.23336,-12.44793 -1.80524,-13.56357 1.26972,-3.30884 4.45021,-3.68996 7.2691,-0.87106 2.25511,2.25512 2.61248,4.32382 2.47082,14.3031 -0.0911,6.41666 -0.54766,15.86666 -1.0146,21 l -0.84898,9.33333 z"
         id="path299" />
      <path
         style="fill:#66b128;stroke-width:1.33333"
         d="m 334.58827,187.54065 c -0.62218,-11.47446 -0.57206,-21.3578 0.11827,-23.33333 1.39845,-4.00161 7.63965,-5.54537 8.92087,-2.20658 0.66196,1.72505 -1.20343,12.62984 -6.86174,40.11274 -0.87204,4.23552 -1.32024,1.23587 -2.17745,-14.57283 z"
         id="path297" />
      <path
         style="fill:#66b128;stroke-width:1.33333"
         d="m 337.25149,225.78015 c 7.24385,-35.21722 9.46642,-44.42652 13.91722,-57.66667 5.04545,-15.00914 11.21487,-22.57155 16.22599,-19.88968 4.09193,2.18995 2.89293,7.46398 -6.018,26.47135 -4.6632,9.94674 -8.92748,19.51013 -9.47619,21.25197 -1.65316,5.24784 1.58171,2.05201 4.95976,-4.89989 8.17963,-16.8334 20.77145,-34.57319 29.95777,-42.20551 4.40463,-3.65951 12.27711,-4.42209 13.30326,-1.28864 0.25928,0.79178 -1.49451,3.89123 -3.89732,6.88767 -2.40282,2.99643 -9.15159,11.34861 -14.99727,18.56039 -5.84568,7.21179 -15.62043,19.94839 -21.72167,28.30357 -10.96422,15.01465 -20.65442,26.80877 -22.02642,26.80877 -0.38889,0 -0.49111,-1.05 -0.22713,-2.33333 z"
         id="path293" />
      <path
         style="fill:#66b128;stroke-width:1.33333"
         d="m 219.18856,222.52323 c -3.3,-3.74192 -8.4147,-10.2813 -11.36599,-14.53194 -8.05844,-11.60625 -29.79422,-39.56653 -36.87112,-47.42993 -10.55538,-11.72846 -11.24476,-15.11455 -3.07716,-15.11455 8.2385,0 22.30764,16.44912 35.92316,42 5.55476,10.42408 8.28087,13.9577 6.68616,8.66667 -0.55257,-1.83333 -4.82,-11.47159 -9.4832,-21.41833 -8.98257,-19.16018 -10.12172,-24.2751 -5.90847,-26.52997 6.7198,-3.59632 14.89695,11.2432 22.02696,39.97357 1.90747,7.6861 4.02242,16.07473 4.6999,18.6414 0.67746,2.56666 1.64265,7.96666 2.14484,12 0.50218,4.03333 1.5067,8.08333 2.23225,9 0.72556,0.91666 0.79572,1.63965 0.15592,1.60662 -0.63979,-0.0331 -3.86325,-3.12161 -7.16325,-6.86354 z"
         id="path28" />
      <path
         style="fill:#2f7134;stroke-width:1.33333"
         d="m 341.85522,154.58411 c -5.16243,-4.29614 -22.40363,-12.56473 -33.39911,-16.01764 -8.36226,-2.62601 -12.78248,-3.11965 -27.93422,-3.11965 -20.81724,0 -29.24051,1.81805 -46.46139,10.02805 -6.12042,2.9179 -11.29833,5.30528 -11.50646,5.30528 -0.78514,0 -11.36548,-14.60239 -11.36548,-15.68599 0,-1.99429 20.29338,-11.94363 31.51398,-15.45051 34.23895,-10.70103 71.42455,-6.16095 103.46471,12.63226 11.24583,6.59626 10.95589,5.73875 5.41134,16.00411 -2.72316,5.04173 -5.27493,9.14683 -5.67062,9.12243 -0.39568,-0.0244 -2.21942,-1.29265 -4.05275,-2.81834 z"
         id="path357" />
      <path
         style="fill:#2f7134;stroke-width:1.33333"
         d="m 259.63408,366.23107 c -47.17287,-9.01298 -82.1324,-38.12376 -98.67584,-82.16735 -6.16576,-16.41511 -8.90699,-33.45548 -8.03531,-49.95024 0.69467,-13.14543 4.51096,-34 6.22183,-34 1.21061,0 6.79476,6.11191 12.36355,13.53201 4.57673,6.09824 4.63146,6.32511 3.3777,14 -4.3642,26.71562 7.24251,62.40206 27.27093,83.8483 7.90619,8.46586 19.22754,17.95302 21.42395,17.95302 1.68469,0 1.93944,-12.2386 0.36275,-17.42698 -3.23662,-10.65075 -24.69995,-62.94571 -31.42772,-76.57302 -5.62159,-11.38669 -19.45469,-34.29201 -23.96317,-39.67904 -0.76148,-0.90986 -4.39211,-5.55429 -8.06807,-10.32096 -3.67595,-4.76666 -8.77137,-11.29941 -11.32316,-14.51722 -2.5518,-3.2178 -4.63963,-6.59433 -4.63963,-7.5034 0,-2.9496 3.78866,-4.98818 7.52676,-4.04997 4.13243,1.03717 18.70268,14.72203 29.10006,27.33173 3.9631,4.80637 13.13955,15.93997 20.3921,24.74133 7.25255,8.80136 18.09024,21.06697 24.08376,27.25692 8.68264,8.96719 10.91261,12.08291 10.97257,15.33087 0.0959,5.19005 2.81351,13.06458 4.72372,13.68704 0.94226,0.30702 1.77266,-3.46635 2.32535,-10.56652 1.38707,-17.81888 1.03631,-24.15976 -1.79099,-32.37744 -1.46666,-4.26295 -2.66666,-10.95687 -2.66666,-14.8754 v -7.1246 h 4.48685 c 2.53824,0 6.0318,1.21525 8.0442,2.7982 3.84048,3.02092 10.13332,14.29016 10.13928,18.15748 0.004,2.28953 5.77607,25.92634 9.69813,39.71098 2.14664,7.5447 8.50787,20.68507 9.98733,20.63083 2.80402,-0.1028 11.13574,-24.37821 16.23328,-47.29749 5.57011,-25.04398 11.05466,-34 20.82115,-34 3.61269,0 4.68051,0.61221 5.23253,3 0.66656,2.88325 -1.3188,13.11021 -4.72384,24.33333 -1.75196,5.77451 -0.56866,39.33333 1.38691,39.33333 1.595,0 3.96612,-6.59512 5.21773,-14.51276 0.88991,-5.62952 1.98235,-7.8155 5.14127,-10.28772 5.0422,-3.94612 27.00441,-28.79569 41.71524,-47.19952 6.15488,-7.7 16.71017,-19.59488 23.4562,-26.43307 10.34753,-10.48889 12.83594,-12.36535 15.91346,-12 8.2023,0.97374 7.27406,3.45842 -9.75049,26.09977 -23.67601,31.48732 -31.06937,44.64854 -46.48,82.74085 -4.0628,10.04252 -9.83852,23.62439 -12.83493,30.18195 -4.26625,9.33654 -5.47071,13.59109 -5.55252,19.61364 -0.0575,4.22996 0.48936,8.2788 1.21519,8.99742 1.85334,1.83499 14.81397,-9.1465 23.45609,-19.87425 8.24444,-10.23409 17.52904,-29.07331 20.72604,-42.05485 1.45126,-5.89291 2.34734,-15.25495 2.45905,-25.69144 l 0.17573,-16.42 7.25139,-13.32736 7.25139,-13.32738 1.75209,5.74736 c 13.93061,45.69628 0.42215,97.63994 -33.93676,130.49583 -5.03176,4.81165 -12.04173,10.72011 -15.57772,13.12991 -10.25996,6.99224 -30.0725,15.79781 -42.29568,18.79806 -14.54918,3.57119 -37.46432,4.53407 -50.16307,2.10782 z"
         id="path349" />
    </g>
  </g>
</svg>
